HIERARCHY
ROOT Hips
{
	OFFSET 0.000000 8.830580 0.000000
	CHANNELS 6 Xposition Yposition Zposition Zrotation Yrotation Xrotation 
	JOINT Spine
	{
		OFFSET 0.000000 0.010000 0.000000
		CHANNELS 3 Zrotation Yrotation Xrotation
		JOINT Spine1
		{
			OFFSET 0.000000 2.459130 0.000000
			CHANNELS 3 Zrotation Yrotation Xrotation
			JOINT Neck
			{
				OFFSET 0.000000 2.484630 0.000000
				CHANNELS 3 Zrotation Yrotation Xrotation
				JOINT Head_virtual
				{
					OFFSET 0.000000 0.000000 0.000000
					CHANNELS 3 Zrotation Yrotation Xrotation
					JOINT Head
					{
						OFFSET 0.000000 0.927525 0.000000
						CHANNELS 3 Zrotation Yrotation Xrotation
						End Site
						{
							OFFSET 0.000000 0.000000 0.000000
						}
					}
				}
				JOINT LeftUpArm_virtual
				{
					OFFSET 0.000000 0.000000 0.000000
					CHANNELS 3 Zrotation Yrotation Xrotation
					JOINT LeftUpArm
					{
						OFFSET 1.248820 0.000000 0.000000
						CHANNELS 3 Zrotation Yrotation Xrotation
						JOINT LeftForeArm
						{
							OFFSET 2.597580 0.000000 0.000000
							CHANNELS 3 Zrotation Yrotation Xrotation
							JOINT LeftHand
							{
								OFFSET 2.455420 0.000000 0.000000
								CHANNELS 3 Zrotation Yrotation Xrotation
								End Site
								{
									OFFSET 0.000000 0.000000 0.000000
								}
							}
						}
					}
				}
				JOINT RightUpArm_virtual
				{
					OFFSET -0.000000 -0.000000 -0.000000
					CHANNELS 3 Zrotation Yrotation Xrotation
					JOINT RightUpArm
					{
						OFFSET -1.248820 -0.000000 -0.000000
						CHANNELS 3 Zrotation Yrotation Xrotation
						JOINT RightForeArm
						{
							OFFSET -2.597580 -0.000000 -0.000000
							CHANNELS 3 Zrotation Yrotation Xrotation
							JOINT RightHand
							{
								OFFSET -2.455420 -0.000000 -0.000000
								CHANNELS 3 Zrotation Yrotation Xrotation
								End Site
								{
									OFFSET 0.000000 0.000000 0.000000
								}
							}
						}
					}
				}
			}
		}
	}
	JOINT LeftUpLeg
	{
		OFFSET 1.271939 0.000000 0.000000
		CHANNELS 3 Zrotation Yrotation Xrotation
		JOINT LeftLowLeg
		{
			OFFSET 0.000000 -4.342910 0.000000
			CHANNELS 3 Zrotation Yrotation Xrotation
			JOINT LeftFoot
			{
				OFFSET 0.000000 -4.487670 0.000000
				CHANNELS 3 Zrotation Yrotation Xrotation
				JOINT LeftToeBase
				{
					OFFSET 0.000000 0.000000 1.515070
					CHANNELS 3 Zrotation Yrotation Xrotation
					End Site
					{
						OFFSET 0.000000 0.000000 0.000000
					}
				}
			}
		}
	}
	JOINT RightUpLeg
	{
		OFFSET -1.271939 0.000000 0.000000
		CHANNELS 3 Zrotation Yrotation Xrotation
		JOINT RightLowLeg
		{
			OFFSET 0.000000 -4.342910 0.000000
			CHANNELS 3 Zrotation Yrotation Xrotation
			JOINT RightFoot
			{
				OFFSET 0.000000 -4.487670 0.000000
				CHANNELS 3 Zrotation Yrotation Xrotation
				JOINT RightToeBase
				{
					OFFSET 0.000000 0.000000 1.515070
					CHANNELS 3 Zrotation Yrotation Xrotation
					End Site
					{
						OFFSET 0.000000 0.000000 0.000000
					}
				}
			}
		}
	}
}
MOTION
Frames: 11
Frame Time: 0.041667
-27.748098 8.982318 32.023505 -4.938115 -18.834052 9.903829 6.784148 5.890725 -13.760682 -3.339382 1.445723 9.196452 0.000000 0.000000 0.000000 14.997109 -53.760831 -21.474327 -38.209044 49.500005 -101.897629 -22.369900 1.436600 4.317350 -51.624100 7.119280 9.153992 180.000000 -71.359001 -180.000000 -53.944500 -2.033970 -96.072998 27.889799 -0.525193 5.571200 52.573502 9.970170 -3.781450 -180.000000 34.910995 -180.000000 -47.138199 17.603399 2.533350 -0.704431 -9.671711 -30.988662 0.000000 0.000000 8.374650 -8.543622 10.005918 -2.177129 0.000000 0.000000 -11.596510 11.627623 23.131725 -1.292627 0.000000 0.000000 17.824900 4.213161 -25.377681 -9.373744 0.000000 0.000000 -19.982630 
-27.825050 8.951904 32.160814 -4.635434 -18.982722 9.964755 6.520839 6.134485 -13.943946 -3.720913 1.838240 9.162356 0.000000 0.000000 0.000000 14.153474 -53.506330 -21.177606 -38.240482 49.651621 -101.761105 -22.356300 1.402710 4.312850 -51.604099 7.179100 9.058014 180.000000 -71.216003 -180.000000 -53.853699 -2.021880 -96.219597 28.069000 -0.483673 5.826420 52.454300 9.821370 -3.895270 -180.000000 34.862000 -180.000000 -47.037601 17.433399 2.473340 -0.789075 -9.318072 -30.581569 0.000000 0.000000 4.356150 -10.368147 7.919380 -1.721422 0.000000 0.000000 -11.460350 11.807874 23.046727 -0.293054 0.000000 0.000000 17.721701 4.380351 -25.074603 -10.206350 0.000000 0.000000 -20.016900 
-27.902598 8.922166 32.306176 -4.347310 -18.995717 10.216308 6.258909 6.235097 -14.400105 -4.123526 2.112865 9.116350 0.000000 0.000000 0.000000 13.253861 -53.199181 -20.830702 -38.388723 49.875569 -101.618784 -22.351400 1.440600 4.164100 -51.589802 7.323630 9.010010 -180.000000 -71.164001 180.000000 -53.532501 -2.186980 -96.416901 28.232100 -0.335704 6.053620 52.328800 9.571270 -3.938240 -180.000000 34.886993 -180.000000 -47.040001 17.513201 2.483040 -1.476539 -8.157281 -30.528156 0.000000 0.000000 1.699990 -12.583694 5.540562 -1.573854 0.000000 0.000000 -11.507350 11.969517 22.961960 0.579594 0.000000 0.000000 17.558500 4.387806 -24.969811 -10.810649 0.000000 0.000000 -20.241380 
-27.976530 8.891074 32.453415 -4.044111 -18.793226 10.551531 6.047869 6.293293 -14.772228 -4.644495 2.231568 8.769934 0.000000 0.000000 0.000000 12.715479 -52.914540 -20.716714 -38.731261 50.149339 -101.394640 -22.367701 1.473150 3.981470 -51.431000 7.532300 9.174011 -180.000000 -71.056999 180.000000 -53.788502 -2.096710 -96.313301 28.383600 -0.313316 6.169540 52.257599 9.299940 -3.973480 -180.000000 34.835999 -180.000000 -46.857101 17.323200 2.437290 -2.556730 -6.699941 -31.040597 0.000000 0.000000 0.949531 -15.312963 3.226913 -1.581809 0.000000 0.000000 -11.504220 12.109390 22.745343 1.349093 0.000000 0.000000 17.396400 4.467809 -24.925731 -11.385089 0.000000 0.000000 -20.517660 
-28.050483 8.860353 32.611966 -3.540892 -18.650781 10.825405 5.583877 6.354572 -15.124524 -4.999919 2.522592 8.138160 0.000000 0.000000 0.000000 11.521799 -52.699770 -20.043302 -38.788380 50.417403 -101.031047 -22.469101 1.365680 4.095410 -51.218601 7.628920 9.363007 180.000000 -71.065002 -180.000000 -53.839100 -2.234160 -96.351097 28.394699 -0.503357 6.209440 52.262901 8.934700 -4.017890 -180.000000 34.815002 -180.000000 -46.724201 17.384800 2.248870 -4.098476 -4.900123 -31.865279 0.000000 0.000000 1.894410 -15.697163 1.424856 -1.413838 0.000000 0.000000 -11.563030 12.046539 22.564469 2.167972 0.000000 0.000000 17.312500 4.749965 -24.692273 -12.021917 0.000000 0.000000 -20.806970 
-28.124184 8.833288 32.779909 -3.226083 -18.356148 11.136550 5.476652 6.371297 -15.858504 -5.650938 2.614713 8.191897 0.000000 0.000000 0.000000 10.957693 -52.371028 -19.974519 -39.071334 50.652806 -100.907519 -22.475000 1.377860 3.883280 -50.943501 7.614090 9.653015 -180.000000 -71.072998 180.000000 -53.762501 -2.174160 -96.148499 28.493601 -0.415764 6.091680 52.316101 8.703410 -4.093250 -180.000000 34.737000 -180.000000 -46.538399 17.179701 1.991160 -5.037771 -3.967954 -32.926195 0.000000 0.000000 4.089390 -13.156411 1.445616 -1.629118 0.000000 0.000000 -11.648410 12.160341 22.162391 3.062289 0.000000 0.000000 17.170300 5.008835 -24.315668 -12.225680 0.000000 0.000000 -21.440390 
-28.201248 8.807880 32.958665 -2.972476 -18.257750 11.327891 5.336983 6.492960 -16.514128 -6.156660 2.852073 8.203672 0.000000 0.000000 0.000000 10.355955 -52.114697 -19.812817 -39.545736 50.823670 -100.892389 -22.506901 1.401730 3.807910 -50.648602 7.464950 9.993988 -180.000000 -71.136002 180.000000 -53.732700 -2.045970 -96.167099 28.506001 -0.448331 6.098240 52.430801 8.621230 -4.177070 180.000000 34.759003 180.000000 -46.534401 17.223101 1.998180 -5.412391 -3.759890 -33.680745 0.000000 0.000000 6.628480 -11.179330 2.510957 -2.277487 0.000000 0.000000 -11.856810 12.323464 21.714208 4.070990 0.000000 0.000000 17.191200 5.357408 -23.653709 -12.187350 0.000000 0.000000 -22.391790 
-28.278865 8.785673 33.146845 -2.641104 -18.450445 11.599827 5.073675 6.662586 -17.259277 -6.594358 3.223041 7.991473 0.000000 0.000000 0.000000 9.370709 -51.908737 -19.160438 -40.120112 50.976010 -101.097528 -22.578501 1.435910 3.635190 -50.311901 7.543730 10.463989 -180.000000 -71.195999 180.000000 -54.122601 -2.068900 -96.572601 28.518700 -0.330495 6.143950 52.521400 8.420240 -4.373260 -180.000000 34.776001 -180.000000 -46.434502 17.035200 1.851570 -5.390182 -4.255916 -34.237554 0.000000 0.000000 9.212760 -10.115159 4.237703 -2.908959 0.000000 0.000000 -12.615580 12.263596 21.373325 4.878841 0.000000 0.000000 17.468500 5.836069 -22.685705 -11.996527 0.000000 0.000000 -23.656170 
-28.357034 8.765446 33.347873 -2.299792 -18.866785 11.770041 4.767820 7.007155 -17.806399 -7.066754 3.702837 7.384732 0.000000 0.000000 0.000000 8.070462 -51.745007 -18.032092 -40.462175 51.217522 -101.240649 -22.544300 1.474500 3.495550 -50.084900 7.815600 11.078003 -180.000000 -71.238998 180.000000 -54.108700 -1.781430 -96.421402 28.634800 -0.475069 6.377600 52.447399 8.360070 -4.617770 -180.000000 34.888000 -180.000000 -46.419300 17.179100 1.648900 -5.359391 -4.884712 -34.273092 0.000000 0.000000 11.374400 -8.693957 6.110106 -3.255916 0.000000 0.000000 -13.404590 12.037027 20.706185 5.661330 0.000000 0.000000 18.061300 6.221638 -21.245798 -11.534841 0.000000 0.000000 -24.542250 
-28.431440 8.751537 33.555704 -1.770557 -19.504268 11.810574 4.496518 7.427124 -18.330590 -7.859999 4.137159 6.610432 0.000000 0.000000 0.000000 6.022305 -51.544313 -16.073100 -40.511071 51.576610 -101.422390 -22.531601 1.501950 3.285700 -49.723202 8.375710 11.548004 -180.000000 -71.175003 180.000000 -54.236301 -1.669710 -96.885902 29.006201 -0.267131 6.575570 52.141499 8.105610 -4.937430 -180.000000 34.936005 -180.000000 -46.255402 17.070499 1.626240 -5.644730 -5.420500 -33.841819 0.000000 0.000000 12.390700 -9.795112 7.520901 -2.289405 0.000000 0.000000 -12.976020 11.345862 19.679250 6.169206 0.000000 0.000000 19.207899 6.931372 -18.962752 -10.962608 0.000000 0.000000 -26.758700 
-28.494930 8.752422 33.764411 -0.847339 -19.909332 11.613469 4.244220 7.937386 -18.457414 -9.366398 4.375942 5.384322 0.000000 0.000000 0.000000 4.317003 -51.476863 -13.894599 -40.796014 51.987674 -101.809550 -22.653601 1.533440 3.095020 -48.875301 8.993510 12.104004 -180.000000 -71.089996 180.000000 -54.255001 -1.643330 -97.447601 29.971201 -0.288552 6.861630 51.354401 7.982510 -5.476750 180.000000 35.117004 180.000000 -46.152500 17.427299 1.500940 -5.418630 -8.000052 -33.330843 0.000000 0.000000 12.813600 -7.095717 11.959380 -0.107023 0.000000 0.000000 -12.900470 10.106349 18.151035 6.299213 0.000000 0.000000 21.066500 7.599881 -16.197065 -9.889754 0.000000 0.000000 -29.009800 
